<svg width="48" height="14" viewBox="0 0 48 14" fill="none" xmlns="http://www.w3.org/2000/svg">
<path d="M45.5916 9.70661H44.2309C43.9492 9.70661 43.7144 9.52016 43.7144 9.2871C43.7144 9.00742 43.9492 8.86758 44.2309 8.86758H46.7176L47.2811 7.61002H44.2309C42.9641 7.61002 42.2597 8.35485 42.2597 9.33371C42.2597 10.3126 42.9641 10.9642 44.0431 10.9642H45.4038C45.6856 10.9642 45.9203 11.1506 45.9203 11.3837C45.9203 11.6168 45.7325 11.8032 45.4038 11.8032H42.4006V13.0608H45.4038C46.6707 13.0608 47.375 12.3159 47.375 11.2905C47.375 10.265 46.7176 9.70661 45.5916 9.70661ZM40.1017 9.70661H38.7409C38.4592 9.70661 38.2244 9.52016 38.2244 9.2871C38.2244 9.00742 38.4592 8.86758 38.7409 8.86758H41.2276L41.7911 7.61002H38.7409C37.4741 7.61002 36.7707 8.35485 36.7707 9.33371C36.7707 10.3126 37.4741 10.9642 38.5541 10.9642H39.9148C40.1966 10.9642 40.4314 11.1506 40.4314 11.3837C40.4314 11.6168 40.2435 11.8032 39.9148 11.8032H36.9116V13.0608H39.9148C41.1817 13.0608 41.885 12.3159 41.885 11.2905C41.932 10.266 41.2756 9.70661 40.1017 9.70661ZM31.4216 13.1064H36.1143V11.8488H32.9233V10.9642H36.0674V9.70661H32.9233V8.82194H36.1143V7.56437H31.4216V13.1074V13.1064ZM28.5123 9.93967H26.9637V8.82194H28.5123C28.9349 8.82194 29.1697 9.10162 29.1697 9.38129C29.1697 9.70758 28.9349 9.94065 28.5123 9.94065M30.6703 9.33468C30.6703 8.26356 29.919 7.56437 28.6992 7.56437H25.4611V13.1074H26.9627V11.1982H27.5262L29.2157 13.1074H30.999L29.1687 11.105C30.1069 10.8719 30.6703 10.2203 30.6703 9.33468ZM22.6467 10.0339H21.0512V8.82291H22.6467C23.0693 8.82291 23.3041 9.10259 23.3041 9.42888C23.3041 9.75517 23.1163 10.0348 22.6467 10.0348M22.8345 7.56632H19.5965V13.1093H21.0981V11.2924H22.8345C24.1014 11.2924 24.8527 10.501 24.8527 9.42888C24.8057 8.31115 24.0554 7.56534 22.8345 7.56534M19.3157 7.56534H17.3925L15.9848 9.24243L14.5301 7.56534H12.5589L15.0457 10.3135L12.512 13.1084H14.4352L15.9368 11.3381L17.4385 13.1084H19.4087L16.875 10.2669L19.3148 7.56534H19.3157ZM7.63245 13.1084H12.3242V11.8508H9.08613V10.9661H12.2302V9.70855H9.08613V8.82388H12.3242V7.56632H7.63245V13.1093V13.1084ZM45.0282 3.83731L42.7293 0.484113H40.852V5.98052H42.3536V2.48651L44.6995 5.97955H46.4828V0.484113H45.0282V3.83828V3.83731ZM36.3941 3.65086L37.1914 1.78732L37.9887 3.65086H36.3931H36.3941ZM36.2063 0.483142L33.7665 6.02616H35.409L35.8786 4.90843H38.4592L38.9287 6.02616H40.6182L38.1315 0.484113H36.2072L36.2063 0.483142ZM31.3267 3.27796V3.18473C31.3267 2.34667 31.7963 1.78732 32.7344 1.78732H34.3769V0.4375H32.5936C30.7633 0.4375 29.8251 1.60184 29.8251 3.13909V3.23231C29.8251 4.95601 30.9041 5.9339 32.5466 5.9339H33.0631L33.6726 4.67633H32.7814C31.8902 4.72295 31.3267 4.21021 31.3267 3.27893M27.5732 5.98052H29.0748V0.484113H27.5732V5.98052ZM24.6639 2.8128H23.1153V1.69507H24.6639C25.0865 1.69507 25.3212 1.97474 25.3212 2.25442C25.3212 2.58071 25.0865 2.81377 24.6639 2.81377M26.8219 2.25442C26.8219 1.1833 26.0706 0.484113 24.8517 0.484113H21.6137V6.02713H23.1153V4.07134H23.6788L25.3682 5.98149H27.1985L25.3222 3.97909C26.2604 3.79264 26.8238 3.09442 26.8238 2.25539M15.9378 5.98149H20.6295V4.72392H17.4385V3.83925H20.5356V2.58168H17.4385V1.69701H20.6295V0.484113H15.9378V5.98052V5.98149ZM11.1992 3.9315L9.93135 0.484113H7.63245V5.98052H9.08711V2.02136L10.5418 5.98052H11.8556L13.3102 2.02136V5.98052H14.8119V0.484113H12.466L11.1992 3.93053V3.9315ZM3.12857 3.65183L3.92585 1.78829L4.72312 3.65183H3.12759H3.12857ZM2.93977 0.484113L0.5 5.98052H2.14249L2.61205 4.86278H5.19268L5.66225 5.98052H7.35169L4.86399 0.484113H2.93977Z" fill="#006FCF"/>
</svg>
