<svg width="67" height="66" viewBox="0 0 67 66" fill="none" xmlns="http://www.w3.org/2000/svg">
<rect x="5.5" y="5" width="56" height="56" rx="28" fill="#D1FADF"/>
<rect x="5.5" y="5" width="56" height="56" rx="28" stroke="#ECFDF3" stroke-width="10"/>
<path d="M45.1673 31.9262V32.9995C45.1659 35.5153 44.3512 37.9633 42.8449 39.9783C41.3385 41.9933 39.2211 43.4674 36.8086 44.1807C34.396 44.8941 31.8175 44.8084 29.4575 43.9365C27.0976 43.0647 25.0827 41.4533 23.7134 39.3428C22.3441 37.2322 21.6937 34.7356 21.8593 32.2252C22.0248 29.7148 22.9974 27.3252 24.632 25.4128C26.2666 23.5003 28.4756 22.1675 30.9295 21.613C33.3835 21.0586 35.951 21.3122 38.249 22.3362M45.1673 23.6662L33.5007 35.3445L30.0007 31.8445" stroke="#039855" stroke-width="2.33333" stroke-linecap="round" stroke-linejoin="round"/>
</svg>
