<svg width="29" height="20" viewBox="0 0 29 20" fill="none" xmlns="http://www.w3.org/2000/svg">
<rect x="0.3125" y="0.3125" width="28.125" height="19.375" rx="3.4375" fill="white"/>
<rect x="0.3125" y="0.3125" width="28.125" height="19.375" rx="3.4375" stroke="#F2F4F7" stroke-width="0.625"/>
<path fill-rule="evenodd" clip-rule="evenodd" d="M14.3157 14.0263C13.329 14.858 12.0491 15.36 10.6506 15.36C7.52985 15.36 5 12.8603 5 9.77669C5 6.6931 7.52985 4.19336 10.6506 4.19336C12.0491 4.19336 13.329 4.69542 14.3157 5.52708C15.3024 4.69542 16.5823 4.19336 17.9809 4.19336C21.1016 4.19336 23.6315 6.6931 23.6315 9.77669C23.6315 12.8603 21.1016 15.36 17.9809 15.36C16.5823 15.36 15.3024 14.858 14.3157 14.0263Z" fill="#ED0006"/>
<path fill-rule="evenodd" clip-rule="evenodd" d="M14.3164 14.0263C15.5314 13.0022 16.3018 11.4784 16.3018 9.77669C16.3018 8.07503 15.5314 6.55117 14.3164 5.52708C15.3031 4.69541 16.583 4.19336 17.9816 4.19336C21.1023 4.19336 23.6321 6.6931 23.6321 9.77669C23.6321 12.8603 21.1023 15.36 17.9816 15.36C16.583 15.36 15.3031 14.858 14.3164 14.0263Z" fill="#F9A000"/>
<path fill-rule="evenodd" clip-rule="evenodd" d="M14.3155 14.0256C15.5305 13.0015 16.3009 11.4776 16.3009 9.77598C16.3009 8.07432 15.5305 6.55045 14.3155 5.52637C13.1005 6.55045 12.3301 8.07432 12.3301 9.77598C12.3301 11.4776 13.1005 13.0015 14.3155 14.0256Z" fill="#FF5E00"/>
</svg>
