<svg width="67" height="66" viewBox="0 0 67 66" fill="none" xmlns="http://www.w3.org/2000/svg">
<rect x="5.5" y="5" width="56" height="56" rx="28" fill="#D1FADF"/>
<rect x="5.5" y="5" width="56" height="56" rx="28" stroke="#ECFDF3" stroke-width="10"/>
<path d="M45.1663 31.9262V32.9995C45.1649 35.5153 44.3503 37.9633 42.8439 39.9783C41.3375 41.9933 39.2202 43.4674 36.8076 44.1807C34.395 44.8941 31.8165 44.8084 29.4566 43.9365C27.0966 43.0647 25.0818 41.4533 23.7125 39.3428C22.3432 37.2322 21.6928 34.7356 21.8583 32.2252C22.0238 29.7148 22.9964 27.3252 24.631 25.4128C26.2656 23.5003 28.4746 22.1675 30.9286 21.613C33.3825 21.0586 35.95 21.3122 38.248 22.3362M45.1663 23.6662L33.4997 35.3445L29.9997 31.8445" stroke="#039855" stroke-width="2.33333" stroke-linecap="round" stroke-linejoin="round"/>
</svg>
