<svg width="84" height="66" viewBox="0 0 84 66" fill="none" xmlns="http://www.w3.org/2000/svg">
<g filter="url(#filter0_d_1410_47304)">
<rect x="13" y="13" width="58.3333" height="40" rx="4.99291" fill="black"/>
</g>
<path fill-rule="evenodd" clip-rule="evenodd" d="M28.9673 26.9056C28.4777 27.4921 27.6943 27.9547 26.9109 27.8886C26.813 27.0956 27.1965 26.253 27.6453 25.7326C28.135 25.1296 28.9918 24.7 29.6854 24.667C29.767 25.493 29.4488 26.3026 28.9673 26.9056ZM29.6773 28.0453C28.9872 28.0051 28.3574 28.2554 27.8488 28.4576C27.5214 28.5877 27.2442 28.6979 27.0333 28.6979C26.7967 28.6979 26.5081 28.5818 26.184 28.4515C25.7593 28.2807 25.2739 28.0855 24.7647 28.0949C23.5978 28.1114 22.5125 28.7805 21.9167 29.8461C20.6927 31.9773 21.5985 35.1328 22.7818 36.8675C23.3611 37.7266 24.0548 38.6683 24.9688 38.6352C25.3708 38.6199 25.6601 38.4956 25.9594 38.3671C26.304 38.219 26.662 38.0653 27.221 38.0653C27.7607 38.0653 28.103 38.215 28.4316 38.3588C28.7441 38.4955 29.0442 38.6268 29.4896 38.6187C30.4363 38.6022 31.032 37.7596 31.6114 36.9005C32.2366 35.9785 32.5114 35.0786 32.5531 34.9421L32.558 34.9263C32.557 34.9253 32.5493 34.9217 32.5356 34.9154L32.5356 34.9154C32.3266 34.8185 30.729 34.0782 30.7137 32.0929C30.6983 30.4266 31.9809 29.5824 32.1828 29.4495C32.195 29.4414 32.2033 29.4359 32.2071 29.4331C31.391 28.2105 30.118 28.0784 29.6773 28.0453ZM36.2304 38.5277V25.6496H41.0043C43.4687 25.6496 45.1906 27.3678 45.1906 29.879C45.1906 32.3902 43.4361 34.1249 40.939 34.1249H38.2052V38.5277H36.2304ZM38.2051 27.335H40.4818C42.1955 27.335 43.1748 28.2601 43.1748 29.8875C43.1748 31.5148 42.1955 32.4482 40.4737 32.4482H38.2051V27.335ZM51.7102 36.9834C51.188 37.9911 50.0373 38.6272 48.797 38.6272C46.9609 38.6272 45.6797 37.5203 45.6797 35.8517C45.6797 34.1996 46.9201 33.2496 49.2131 33.1092L51.6776 32.9605V32.2501C51.6776 31.201 51.0003 30.631 49.7925 30.631C48.797 30.631 48.0707 31.1514 47.9238 31.9444H46.1448C46.202 30.2758 47.7524 29.0615 49.8497 29.0615C52.1101 29.0615 53.579 30.2593 53.579 32.1179V38.5281H51.751V36.9834H51.7102ZM49.3273 37.0987C48.2746 37.0987 47.6055 36.5865 47.6055 35.8018C47.6055 34.9923 48.2501 34.5214 49.4824 34.4471L51.6775 34.3066V35.0336C51.6775 36.2396 50.6656 37.0987 49.3273 37.0987ZM59.6429 39.0321C58.8514 41.2872 57.9456 42.0306 56.0197 42.0306C55.8728 42.0306 55.3832 42.0141 55.2689 41.9811V40.4364C55.3913 40.4529 55.6933 40.4694 55.8483 40.4694C56.7215 40.4694 57.2111 40.0977 57.5131 39.1312L57.6926 38.5612L54.3468 29.1855H56.4114L58.7371 36.7935H58.7779L61.1037 29.1855H63.1111L59.6429 39.0321Z" fill="white"/>
<defs>
<filter id="filter0_d_1410_47304" x="0.517732" y="0.517732" width="83.2975" height="64.9645" filterUnits="userSpaceOnUse" color-interpolation-filters="sRGB">
<feFlood flood-opacity="0" result="BackgroundImageFix"/>
<feColorMatrix in="SourceAlpha" type="matrix" values="0 0 0 0 0 0 0 0 0 0 0 0 0 0 0 0 0 0 127 0" result="hardAlpha"/>
<feOffset/>
<feGaussianBlur stdDeviation="6.24113"/>
<feColorMatrix type="matrix" values="0 0 0 0 0 0 0 0 0 0 0 0 0 0 0 0 0 0 0.1 0"/>
<feBlend mode="normal" in2="BackgroundImageFix" result="effect1_dropShadow_1410_47304"/>
<feBlend mode="normal" in="SourceGraphic" in2="effect1_dropShadow_1410_47304" result="shape"/>
</filter>
</defs>
</svg>
