<svg width="50" height="12" viewBox="0 0 50 12" fill="none" xmlns="http://www.w3.org/2000/svg">
<path d="M10.287 7.27577C9.59324 10.1104 6.7626 11.8387 3.96441 11.1358C1.16622 10.4324 -0.5391 7.56442 0.154671 4.72975C0.848441 1.89464 3.67908 0.166375 6.47727 0.869749C6.48216 0.8711 6.48661 0.872001 6.49149 0.873352C9.28213 1.58303 10.9799 4.44651 10.287 7.27577Z" fill="#F7931A"/>
<path d="M6.40426 5.23234C6.24115 5.89338 5.24605 5.55475 4.92338 5.4737L5.20871 4.31687C5.52693 4.39612 6.56737 4.54832 6.39937 5.23234H6.40426ZM6.22648 7.10155C6.05048 7.82203 4.85316 7.43207 4.46472 7.33435L4.77938 6.05684C5.16782 6.15591 6.41048 6.34954 6.22604 7.10155H6.22648ZM7.53136 5.24224C7.63402 4.53797 7.10558 4.15971 6.38959 3.90844L6.62425 2.9547L6.04515 2.80925L5.81671 3.73823C5.66649 3.7004 5.51182 3.66393 5.35849 3.62925L5.58693 2.69037L5.01449 2.54492L4.77983 3.49867L4.4145 3.41626L3.6234 3.21632L3.47184 3.83594C3.47184 3.83594 3.89584 3.93501 3.88784 3.94176C4.04961 3.96158 4.16783 4.10748 4.15539 4.27229L3.88784 5.35797C3.90784 5.36247 3.92784 5.36923 3.9465 5.37778L3.88606 5.36112L3.51229 6.88315C3.47718 6.99437 3.35984 7.05562 3.24962 7.02049C3.24962 7.0286 2.83185 6.91647 2.83185 6.91647L2.54785 7.57752L3.29318 7.76439L3.70073 7.87202L3.46429 8.83567L4.03672 8.98111L4.27139 8.02737C4.42561 8.07015 4.57761 8.10978 4.7265 8.14625L4.49494 9.10315L5.06738 9.24679L5.30382 8.28495C6.28248 8.47182 7.01492 8.39707 7.32469 7.50142C7.57447 6.78093 7.3118 6.3662 6.79803 6.09512C7.17314 6.00776 7.45047 5.76459 7.53047 5.24224H7.53136Z" fill="white"/>
<path d="M13.5891 9.63213C13.894 9.63303 14.1939 9.55423 14.4602 9.40383C14.7339 9.25568 14.9753 9.05214 15.1682 8.80537C15.369 8.54465 15.5273 8.25285 15.6362 7.94124C15.7513 7.61882 15.8095 7.27884 15.809 6.93661C15.8273 6.58898 15.7539 6.24269 15.597 5.93333C15.4566 5.69377 15.1957 5.57129 14.8175 5.57129C14.6526 5.57714 14.4886 5.59966 14.3282 5.63884C14.1291 5.68387 13.9446 5.78068 13.7931 5.91983L12.9286 9.58215L13.0673 9.60872C13.1086 9.61907 13.1508 9.62583 13.1926 9.62853C13.2468 9.63528 13.3011 9.63798 13.3557 9.63663L13.5891 9.63168V9.63213ZM15.3068 3.90742C15.6846 3.89841 16.0593 3.97676 16.4028 4.13572C16.701 4.27982 16.9633 4.49056 17.1695 4.75219C17.3806 5.02282 17.5357 5.33353 17.6264 5.66585C17.725 6.0324 17.7739 6.41111 17.7717 6.79116C17.7712 7.97411 17.3188 9.11023 16.509 9.96265C16.1166 10.3706 15.6495 10.6971 15.1339 10.9245C14.5935 11.1654 14.0086 11.2883 13.418 11.2847H13.0002C12.7731 11.2771 12.5464 11.2573 12.3215 11.2253C12.0469 11.1848 11.7744 11.1298 11.506 11.06C11.2242 10.9925 10.9509 10.8939 10.6904 10.766L12.9824 1.03853L15.0295 0.708008L14.2139 4.16049C14.3837 4.08259 14.5602 4.01999 14.7406 3.97361C14.9268 3.92768 15.1184 3.90472 15.3099 3.90607L15.3068 3.90787V3.90742Z" fill="#4D4D4D"/>
<path d="M20.8381 3.19832C20.5714 3.20102 20.311 3.11411 20.0977 2.952C19.8714 2.77053 19.7488 2.48684 19.7714 2.19504C19.7706 2.01312 19.8088 1.833 19.8839 1.66774C19.9559 1.50653 20.0568 1.36108 20.1826 1.23815C20.3079 1.11747 20.4532 1.0202 20.6114 0.950403C20.7763 0.878805 20.9541 0.84233 21.1332 0.84278C21.3981 0.84188 21.6559 0.929239 21.8674 1.09045C22.0932 1.27237 22.2154 1.55561 22.1936 1.84741C22.195 2.02978 22.1572 2.21035 22.083 2.37607C22.011 2.53637 21.9105 2.68137 21.7861 2.80385C21.6612 2.92499 21.5159 3.02225 21.3572 3.0916C21.1923 3.1632 21.0145 3.19922 20.8354 3.19742H20.8385L20.8381 3.19832ZM19.887 11.0962H17.9297L19.5834 4.0557H21.5523L19.887 11.0962Z" fill="#4D4D4D"/>
<path d="M23.2655 2.30304L25.3126 1.98242L24.8037 4.05652H26.9961L26.601 5.68932H24.4268L23.8464 8.14528C23.7962 8.33351 23.7651 8.52624 23.7535 8.72077C23.7415 8.87792 23.7646 9.03598 23.8202 9.18323C23.8748 9.31517 23.9757 9.42189 24.1042 9.48223C24.2886 9.56464 24.4899 9.60246 24.6913 9.59121C24.8979 9.59211 25.1037 9.57139 25.3064 9.52996C25.5099 9.48944 25.7108 9.4345 25.9068 9.3647L26.0535 10.8917C25.7726 10.9939 25.4855 11.0786 25.1939 11.1448C24.8339 11.2222 24.4659 11.2582 24.098 11.2524C23.4895 11.2524 23.0197 11.1596 22.6837 10.9781C22.3695 10.816 22.1175 10.5522 21.9695 10.2279C21.8246 9.8839 21.7615 9.51015 21.7851 9.1373C21.8069 8.6996 21.8686 8.26461 21.9695 7.83817L23.2664 2.29718V2.30394L23.2655 2.30304Z" fill="#4D4D4D"/>
<path d="M26.9239 8.28506C26.9199 7.70101 27.0181 7.12057 27.2141 6.5712C27.3981 6.052 27.6808 5.57423 28.0461 5.1649C28.4141 4.75918 28.8621 4.43586 29.3608 4.21611C29.9048 3.97835 30.4923 3.85947 31.0848 3.86758C31.4425 3.86307 31.7994 3.90135 32.1483 3.9815C32.4416 4.05175 32.727 4.15262 32.9999 4.28231L32.3199 5.8309C32.1439 5.7584 31.9608 5.69581 31.7719 5.63772C31.5461 5.57423 31.3128 5.54451 31.0786 5.55036C30.487 5.52875 29.9181 5.78182 29.5337 6.23798C29.1519 6.69278 28.9603 7.3043 28.9595 8.07251C28.9417 8.46203 29.043 8.84749 29.2497 9.17666C29.443 9.45765 29.7999 9.59769 30.3199 9.59769C30.5688 9.59769 30.8172 9.57067 31.0603 9.51664C31.2772 9.46981 31.4897 9.40271 31.695 9.3167L31.8403 10.9099C31.5737 11.0121 31.3012 11.0995 31.0248 11.1706C30.6737 11.2508 30.3146 11.2886 29.9546 11.2832C29.4768 11.2971 29.0017 11.2156 28.555 11.0436C28.1999 10.8986 27.8804 10.6771 27.6186 10.3943C27.3701 10.12 27.1866 9.79222 27.0821 9.43558C26.9715 9.06048 26.9164 8.67052 26.919 8.27875L26.9239 8.28551V8.28506Z" fill="#4D4D4D"/>
<path d="M36.5821 5.55653C36.3061 5.55248 36.0363 5.64164 35.8154 5.8096C35.5914 5.98522 35.4034 6.20362 35.2625 6.45264C35.1074 6.71741 34.991 7.00381 34.9167 7.30236C34.8452 7.58875 34.8079 7.88235 34.8061 8.1782C34.7883 8.53889 34.8607 8.89779 35.0167 9.2229C35.1585 9.47237 35.4132 9.59801 35.7834 9.59801C36.0598 9.60296 36.3301 9.51335 36.5501 9.34359C36.7745 9.16797 36.9629 8.94957 37.1047 8.701C37.2576 8.43577 37.3714 8.14983 37.4425 7.85128C37.5136 7.56444 37.5509 7.26994 37.5532 6.97364C37.5714 6.61339 37.4989 6.2536 37.3425 5.92893C37.2007 5.68126 36.9443 5.55563 36.5758 5.55563L36.5825 5.55743L36.5821 5.55653ZM35.6034 11.2844C35.1878 11.2943 34.7745 11.2209 34.3865 11.0696C34.0603 10.939 33.7688 10.7332 33.535 10.468C33.3052 10.201 33.1323 9.88845 33.0261 9.55073C32.911 9.17202 32.8554 8.7771 32.863 8.38084C32.8643 7.83507 32.9505 7.2929 33.1194 6.7746C33.283 6.2527 33.5385 5.76547 33.8728 5.33498C34.2087 4.90494 34.6265 4.5474 35.1007 4.28397C35.6114 4.00568 36.1843 3.86519 36.7647 3.87555C37.1781 3.86789 37.5887 3.94084 37.9749 4.09034C38.3016 4.21868 38.5949 4.42176 38.8314 4.68384C39.0598 4.95177 39.2323 5.26383 39.3389 5.60111C39.4549 5.98027 39.51 6.37563 39.502 6.7728C39.5002 7.31812 39.4162 7.85983 39.2523 8.37903C39.0914 8.90139 38.8407 9.39087 38.5118 9.82496C38.1807 10.2568 37.7647 10.6143 37.2901 10.8746C36.7714 11.1543 36.191 11.2957 35.6034 11.2844Z" fill="#4D4D4D"/>
<path d="M42.5922 3.19836C42.326 3.20106 42.066 3.1146 41.8535 2.95204C41.6269 2.77057 41.5046 2.48688 41.5273 2.19508C41.5264 2.01316 41.5646 1.83303 41.6397 1.66777C41.7095 1.50746 41.8082 1.36202 41.93 1.23818C42.0562 1.11795 42.2015 1.02069 42.3606 0.950439C42.5251 0.87884 42.702 0.842366 42.8811 0.842816C43.1477 0.840564 43.4086 0.927923 43.6215 1.09048C43.8473 1.27241 43.9695 1.55565 43.9477 1.84744C43.9477 2.03027 43.9091 2.21039 43.8335 2.3761C43.7628 2.53641 43.6624 2.68186 43.5384 2.80389C43.4135 2.92502 43.2682 3.02229 43.1095 3.09163C42.946 3.16278 42.77 3.19881 42.5922 3.19745V3.19836ZM41.6429 11.0962H39.6855L41.3362 4.05573H43.3064L41.6424 11.0962H41.6429Z" fill="#4D4D4D"/>
<path d="M44.7166 4.37604C44.8651 4.33326 45.03 4.28012 45.206 4.22249C45.382 4.16485 45.5877 4.11171 45.8144 4.05722C46.0628 4.00364 46.314 3.96356 46.5664 3.93654C46.8802 3.90277 47.1953 3.88701 47.5108 3.88881C48.5419 3.88881 49.2526 4.19232 49.6441 4.79932C49.8784 5.16317 49.997 5.60672 50.0001 6.13042V6.16825C49.9984 6.50868 49.9481 6.88288 49.8499 7.28996L48.9513 11.091H46.9873L47.8597 7.36921C47.9117 7.1382 47.9544 6.91305 47.9855 6.6933C48.0193 6.50282 48.0193 6.30829 47.9855 6.11826C47.9531 5.95931 47.8664 5.81746 47.7411 5.71659C47.5668 5.60087 47.3597 5.54683 47.1522 5.56304C46.8908 5.56349 46.63 5.59051 46.374 5.64409L45.0917 11.0977H43.1162L44.7166 4.37649V4.37604Z" fill="#4D4D4D"/>
</svg>
