<svg width="38" height="30" viewBox="0 0 38 30" fill="none" xmlns="http://www.w3.org/2000/svg">
<g filter="url(#filter0_d_1410_47367)">
<rect x="6.35725" y="6.19025" width="25.7914" height="17.6199" rx="2.12109" fill="white" stroke="#D9D9D9" stroke-width="0.208632"/>
</g>
<path d="M17.1055 23.7804L32.0961 19.376V21.6941C32.0961 22.8464 31.162 23.7804 30.0098 23.7804H17.1055Z" fill="#FD6020"/>
<path fill-rule="evenodd" clip-rule="evenodd" d="M29.0968 13.2246C29.904 13.2246 30.3479 13.5838 30.3479 14.2623C30.3883 14.7812 30.0251 15.2202 29.5408 15.3L30.6304 16.7767H29.7829L28.8547 15.3399H28.774V16.7767H28.0879V13.2246H29.0968ZM28.7745 14.8607H28.9763C29.4202 14.8607 29.622 14.6611 29.622 14.3019C29.622 13.9826 29.4202 13.7831 28.9763 13.7831H28.7745V14.8607ZM25.7061 16.7767H27.6432V16.1781H26.3921V15.2202H27.6029V14.6215H26.3921V13.8233H27.6432V13.2246H25.7061V16.7767ZM23.6888 15.6193L22.7606 13.2246H22.0342L23.5274 16.8566H23.8906L25.3839 13.2246H24.6574L23.6888 15.6193ZM15.4959 15.0212C15.4959 16.019 16.3031 16.8571 17.312 16.8571C17.6349 16.8571 17.9174 16.7773 18.1999 16.6575V15.8593C17.9981 16.0988 17.7156 16.2584 17.3928 16.2584C16.747 16.2584 16.2224 15.7795 16.2224 15.1409V15.0611C16.182 14.4225 16.7067 13.8637 17.3524 13.8238C17.6753 13.8238 17.9981 13.9835 18.1999 14.2229V13.4247C17.9578 13.2651 17.6349 13.2251 17.3524 13.2251C16.3031 13.1453 15.4959 13.9835 15.4959 15.0212ZM14.2452 14.5819C13.8416 14.4223 13.7206 14.3424 13.7206 14.1429C13.7609 13.9034 13.9627 13.7039 14.2049 13.7438C14.4066 13.7438 14.6084 13.8635 14.7699 14.0232L15.1331 13.5442C14.8506 13.3047 14.4874 13.1451 14.1241 13.1451C13.5591 13.1052 13.0748 13.5442 13.0345 14.103V14.1429C13.0345 14.6218 13.2363 14.9012 13.882 15.1008C14.0434 15.1407 14.2049 15.2205 14.3663 15.3003C14.4874 15.3801 14.5681 15.4999 14.5681 15.6595C14.5681 15.9389 14.3259 16.1784 14.0838 16.1784H14.0434C13.7206 16.1784 13.4381 15.9788 13.317 15.6994L12.873 16.1385C13.1152 16.5775 13.5995 16.817 14.0838 16.817C14.7295 16.8569 15.2542 16.3779 15.2945 15.7393V15.6196C15.2542 15.1407 15.0524 14.9012 14.2452 14.5819ZM11.9043 16.7767H12.5904V13.2246H11.9043V16.7767ZM8.71582 13.2246H9.72476H9.92655C10.8951 13.2645 11.6619 14.0628 11.6216 15.0206C11.6216 15.5395 11.3794 16.0184 10.9759 16.3776C10.6126 16.657 10.1687 16.8166 9.72476 16.7767H8.71582V13.2246ZM9.60422 16.1777C9.92709 16.2176 10.2903 16.0979 10.5325 15.8983C10.7746 15.6589 10.8957 15.3396 10.8957 14.9804C10.8957 14.6611 10.7746 14.3418 10.5325 14.1023C10.2903 13.9028 9.92709 13.783 9.60422 13.8229H9.40244V16.1777H9.60422Z" fill="black"/>
<path fill-rule="evenodd" clip-rule="evenodd" d="M20.2578 13.1426C19.2489 13.1426 18.4014 13.9408 18.4014 14.9785C18.4014 15.9763 19.2085 16.8144 20.2578 16.8543C21.3071 16.8943 22.1143 16.0561 22.1546 15.0184C22.1143 13.9807 21.3071 13.1426 20.2578 13.1426V13.1426Z" fill="#FD6020"/>
<defs>
<filter id="filter0_d_1410_47367" x="0.689404" y="0.522412" width="37.1271" height="28.9552" filterUnits="userSpaceOnUse" color-interpolation-filters="sRGB">
<feFlood flood-opacity="0" result="BackgroundImageFix"/>
<feColorMatrix in="SourceAlpha" type="matrix" values="0 0 0 0 0 0 0 0 0 0 0 0 0 0 0 0 0 0 127 0" result="hardAlpha"/>
<feOffset/>
<feGaussianBlur stdDeviation="2.78176"/>
<feColorMatrix type="matrix" values="0 0 0 0 0 0 0 0 0 0 0 0 0 0 0 0 0 0 0.1 0"/>
<feBlend mode="normal" in2="BackgroundImageFix" result="effect1_dropShadow_1410_47367"/>
<feBlend mode="normal" in="SourceGraphic" in2="effect1_dropShadow_1410_47367" result="shape"/>
</filter>
</defs>
</svg>
