<svg width="48" height="13" viewBox="0 0 48 13" fill="none" xmlns="http://www.w3.org/2000/svg">
<path d="M13.7166 7.59795C13.7166 7.68131 13.6461 7.75181 13.5581 7.75181H10.642C10.7166 8.47325 11.258 9.13294 12.0231 9.13294C12.5465 9.13294 12.9334 8.93483 13.2237 8.51699C13.2545 8.47325 13.2983 8.44237 13.3513 8.44237C13.4346 8.44237 13.4964 8.50412 13.4964 8.58749C13.4964 8.61836 13.4876 8.64049 13.4743 8.6621C13.1794 9.17205 12.5948 9.42317 12.0226 9.42317C11.0418 9.42317 10.3379 8.54375 10.3379 7.60669C10.3379 6.66964 11.0372 5.79022 12.0226 5.79022C13.0081 5.79022 13.7115 6.66089 13.7161 7.59795H13.7166ZM13.4043 7.46158C13.3425 6.74014 12.7883 6.08045 12.0231 6.08045C11.258 6.08045 10.7171 6.74014 10.642 7.46158H13.4043ZM17.257 5.86072C17.3403 5.86072 17.4021 5.93533 17.4021 6.00583C17.4021 6.08919 17.3403 6.15094 17.257 6.15094H16.4743V9.22505C16.4743 9.29967 16.4125 9.37016 16.3292 9.37016C16.2458 9.37016 16.184 9.29555 16.184 9.22505V6.15094H15.4317C15.3484 6.15094 15.2866 6.08919 15.2866 6.00583C15.2866 5.93122 15.3484 5.86072 15.4317 5.86072H16.184V4.73945C16.184 4.66483 16.2412 4.59434 16.3158 4.58559C16.4079 4.57684 16.4784 4.64271 16.4784 4.7307V5.86123H17.257V5.86072ZM22.0333 7.34735V9.20756C22.0333 9.29092 21.9587 9.35267 21.8882 9.35267C21.8048 9.35267 21.7431 9.29092 21.7431 9.20756V7.34735C21.7431 6.71853 21.387 6.09383 20.6877 6.09383C19.7902 6.09383 19.4033 6.8765 19.4563 7.68131C19.4563 7.70344 19.465 7.79554 19.465 7.80892V9.20293C19.465 9.27754 19.4079 9.34804 19.3333 9.35678C19.2412 9.36553 19.1707 9.29967 19.1707 9.21167V3.09433C19.1707 3.01972 19.2324 2.94922 19.3158 2.94922C19.3992 2.94922 19.4609 3.02383 19.4609 3.09433V6.55129C19.7115 6.10257 20.1602 5.79897 20.6835 5.79897C21.5455 5.79897 22.0338 6.55129 22.0338 7.34735H22.0333ZM27.2712 7.59795C27.2712 7.68131 27.2007 7.75181 27.1127 7.75181H24.1966C24.2712 8.47325 24.8125 9.13294 25.5777 9.13294C26.1011 9.13294 26.488 8.93483 26.7783 8.51699C26.8091 8.47325 26.8529 8.44237 26.9059 8.44237C26.9892 8.44237 27.051 8.50412 27.051 8.58749C27.051 8.61836 27.0422 8.64049 27.0289 8.6621C26.734 9.17205 26.1494 9.42317 25.5772 9.42317C24.5964 9.42317 23.8925 8.54375 23.8925 7.60669C23.8925 6.66964 24.5918 5.79022 25.5772 5.79022C26.5626 5.79022 27.262 6.66089 27.2707 7.59795H27.2712ZM26.9548 7.46158C26.893 6.74014 26.3388 6.08045 25.5736 6.08045C24.8084 6.08045 24.2676 6.74014 24.1925 7.46158H26.9548ZM30.8517 5.99708C30.8517 6.08919 30.7987 6.1422 30.7153 6.15557C29.8575 6.28319 29.4705 6.98251 29.4705 7.79606V9.19006C29.4705 9.26468 29.4134 9.33517 29.3388 9.34392C29.2467 9.35267 29.1762 9.2868 29.1762 9.19881V6.01921C29.1762 5.9446 29.2333 5.8741 29.3079 5.86535C29.4 5.8566 29.4705 5.92247 29.4705 6.01046V6.65678C29.7124 6.24769 30.192 5.86072 30.6932 5.86072C30.7678 5.86072 30.8517 5.91372 30.8517 5.99708ZM35.6502 7.59795C35.6502 7.68131 35.5797 7.75181 35.4917 7.75181H32.5755C32.6501 8.47325 33.1915 9.13294 33.9567 9.13294C34.48 9.13294 34.867 8.93483 35.1572 8.51699C35.1881 8.47325 35.2318 8.44237 35.2848 8.44237C35.3682 8.44237 35.4299 8.50412 35.4299 8.58749C35.4299 8.61836 35.4212 8.64049 35.4078 8.6621C35.1129 9.17205 34.5284 9.42317 33.9561 9.42317C32.9754 9.42317 32.2714 8.54375 32.2714 7.60669C32.2714 6.66964 32.9707 5.79022 33.9561 5.79022C34.9416 5.79022 35.645 6.66089 35.6496 7.59795H35.6502ZM35.3378 7.46158C35.276 6.74014 34.7218 6.08045 33.9567 6.08045C33.1915 6.08045 32.6507 6.74014 32.5755 7.46158H35.3378ZM40.3647 6.03208V9.22505C40.3647 9.30841 40.2901 9.37016 40.2196 9.37016C40.1363 9.37016 40.0745 9.30841 40.0745 9.22505V8.61836C39.8327 9.09795 39.4061 9.44529 38.8606 9.44529C37.9941 9.44529 37.515 8.69298 37.515 7.89692V6.02796C37.515 5.95334 37.5767 5.88285 37.6601 5.88285C37.7435 5.88285 37.8052 5.95746 37.8052 6.02796V7.89692C37.8052 8.52574 38.1613 9.15044 38.8606 9.15044C39.8414 9.15044 40.0745 8.2314 40.0745 7.2151V6.02333C40.0745 5.93533 40.1666 5.84734 40.2726 5.88696C40.3256 5.91321 40.3647 5.97033 40.3647 6.03208ZM47.749 7.33397V9.20293C47.749 9.28629 47.6744 9.34804 47.6039 9.34804C47.5205 9.34804 47.4588 9.28629 47.4588 9.20293V7.33397C47.4588 6.70515 47.1027 6.08919 46.4034 6.08919C45.5239 6.08919 45.1895 7.03036 45.1895 7.76055V9.20293C45.1895 9.28629 45.1148 9.34804 45.0443 9.34804C44.961 9.34804 44.8992 9.28629 44.8992 9.20293V7.33397C44.8992 6.70515 44.5431 6.08919 43.8438 6.08919C42.9557 6.08919 42.5903 6.78851 42.6212 7.72093C42.6212 7.74306 42.6299 7.78268 42.6212 7.79555V9.19829C42.6212 9.27291 42.5641 9.34341 42.4895 9.35215C42.3973 9.3609 42.3268 9.29504 42.3268 9.20704V6.01818C42.3268 5.94357 42.384 5.87307 42.4586 5.86432C42.5507 5.85557 42.6212 5.92144 42.6212 6.00943V6.54151C42.8718 6.0928 43.3205 5.79846 43.8438 5.79846C44.4377 5.79846 44.8992 6.17667 45.0886 6.72625C45.3305 6.18079 45.8013 5.79846 46.4039 5.79846C47.2617 5.79846 47.7495 6.54151 47.7495 7.33345L47.749 7.33397Z" fill="#3B3B3B"/>
<path opacity="0.6" d="M3.90044 8.97002L7.55551 6.81032L3.90044 5.15234L0.25 6.81084L3.90044 8.97054V8.97002Z" fill="black"/>
<path opacity="0.45" d="M3.90044 5.15276V0.75L0.25 6.81074L3.90044 8.97044V5.15276Z" fill="black"/>
<path opacity="0.8" d="M3.90039 8.96992L7.55546 6.81022L3.90039 0.75V8.96992Z" fill="black"/>
<path opacity="0.45" d="M3.90044 9.65995L0.25 7.50488L3.90044 12.6507V9.65995Z" fill="black"/>
<path opacity="0.8" d="M7.55546 7.50488L3.90039 9.65995V12.6507L7.55546 7.50488Z" fill="black"/>
</svg>
