<svg width="85" height="66" viewBox="0 0 85 66" fill="none" xmlns="http://www.w3.org/2000/svg">
<g filter="url(#filter0_d_1410_47316)">
<rect x="13.5671" y="13.234" width="57.8652" height="39.5319" rx="4.75886" fill="white" stroke="#D9D9D9" stroke-width="0.468085"/>
</g>
<path fill-rule="evenodd" clip-rule="evenodd" d="M40.8922 39.2673V34.2324H43.4908C44.5557 34.2324 45.4544 33.8756 46.1871 33.1719L46.363 32.9935C47.7014 31.5366 47.6135 29.2669 46.1871 27.9189C45.474 27.2053 44.4971 26.8188 43.4908 26.8386H39.3193V39.2673H40.8922ZM40.8916 32.7025V28.3613H43.5297C44.0964 28.3613 44.6338 28.5794 45.0344 28.9758C45.8844 29.8084 45.904 31.196 45.0832 32.0582C44.6826 32.4844 44.1159 32.7223 43.5297 32.7025H40.8916ZM53.6975 31.422C53.0234 30.7976 52.1051 30.4805 50.9426 30.4805C49.4479 30.4805 48.3244 31.0355 47.582 32.1357L48.9692 33.0178C49.4772 32.2645 50.1708 31.8879 51.05 31.8879C51.6069 31.8879 52.1442 32.096 52.5643 32.4726C52.9746 32.8294 53.209 33.3448 53.209 33.8899V34.2567C52.6033 33.9197 51.8413 33.7413 50.9035 33.7413C49.8093 33.7413 48.9301 33.999 48.2756 34.5243C47.621 35.0496 47.2889 35.7434 47.2889 36.6255C47.2693 37.4283 47.6113 38.1914 48.217 38.7068C48.8324 39.2619 49.614 39.5394 50.5323 39.5394C51.6167 39.5394 52.4763 39.0537 53.1309 38.0824H53.1993V39.2619H54.7037V34.0188C54.7037 32.9186 54.3716 32.0464 53.6975 31.422ZM49.4289 37.6956C49.1065 37.4577 48.9111 37.0712 48.9111 36.6549C48.9111 36.1891 49.126 35.8025 49.5462 35.4953C49.9761 35.188 50.5135 35.0294 51.1486 35.0294C52.0279 35.0195 52.7119 35.2178 53.2004 35.6142C53.2004 36.2882 52.9366 36.8729 52.4188 37.3685C51.9498 37.8443 51.3147 38.1119 50.6503 38.1119C50.2106 38.1218 49.7807 37.9731 49.4289 37.6956ZM58.0803 43.0041L63.3361 30.7637H61.6265L59.194 36.869H59.1647L56.6735 30.7637H54.9639L58.4124 38.7224L56.4586 43.0041H58.0803Z" fill="#3C4043"/>
<path d="M35.4644 33.1385C35.4644 32.6528 35.4253 32.1671 35.3472 31.6914H28.7139V34.4368H32.5141C32.3578 35.3189 31.8498 36.1118 31.1073 36.6074V38.3914H33.3738C34.7024 37.1525 35.4644 35.3189 35.4644 33.1385Z" fill="#4285F4"/>
<path d="M28.7064 40.116C30.6017 40.116 32.2038 39.4817 33.3664 38.3914L31.0999 36.6074C30.4649 37.0435 29.6541 37.2913 28.7064 37.2913C26.8698 37.2913 25.3165 36.0326 24.7597 34.3477H22.4248V36.1911C23.6167 38.5996 26.0492 40.116 28.7064 40.116Z" fill="#34A853"/>
<path d="M24.7629 34.3455C24.4697 33.4634 24.4697 32.502 24.7629 31.61V29.7764H22.4276C21.4213 31.7884 21.4213 34.1671 22.4276 36.1791L24.7629 34.3455Z" fill="#FBBC04"/>
<path d="M28.7064 28.6669C29.7127 28.6471 30.6798 29.0337 31.4028 29.7374L33.4152 27.6956C32.1355 26.4865 30.4552 25.8224 28.7064 25.8422C26.0492 25.8422 23.6167 27.3686 22.4248 29.777L24.7597 31.6205C25.3165 29.9257 26.8698 28.6669 28.7064 28.6669Z" fill="#EA4335"/>
<defs>
<filter id="filter0_d_1410_47316" x="0.850739" y="0.517731" width="83.2975" height="64.9645" filterUnits="userSpaceOnUse" color-interpolation-filters="sRGB">
<feFlood flood-opacity="0" result="BackgroundImageFix"/>
<feColorMatrix in="SourceAlpha" type="matrix" values="0 0 0 0 0 0 0 0 0 0 0 0 0 0 0 0 0 0 127 0" result="hardAlpha"/>
<feOffset/>
<feGaussianBlur stdDeviation="6.24113"/>
<feColorMatrix type="matrix" values="0 0 0 0 0 0 0 0 0 0 0 0 0 0 0 0 0 0 0.1 0"/>
<feBlend mode="normal" in2="BackgroundImageFix" result="effect1_dropShadow_1410_47316"/>
<feBlend mode="normal" in="SourceGraphic" in2="effect1_dropShadow_1410_47316" result="shape"/>
</filter>
</defs>
</svg>
