<svg width="18" height="16" viewBox="0 0 18 16" fill="none" xmlns="http://www.w3.org/2000/svg">
<mask id="path-1-outside-1_1521_54971" maskUnits="userSpaceOnUse" x="-0.66258" y="0.318048" width="8.58352" height="15.8307" fill="black">
<rect fill="white" x="-0.66258" y="0.318048" width="8.58352" height="15.8307"/>
<path fill-rule="evenodd" clip-rule="evenodd" d="M3.22529 14.7887C4.24345 16.2387 5.40895 14.5728 5.8285 11.0678C6.24806 7.56273 5.76279 3.54583 4.74463 2.09578C3.72647 0.645721 2.56097 2.31161 2.14142 5.81665C1.72186 9.32169 2.20713 13.3386 3.22529 14.7887ZM3.51232 13.5936C4.37736 14.8256 5.36242 13.4534 5.71251 10.5286C6.0626 7.60391 5.64515 4.23424 4.78011 3.00225C3.91507 1.77026 2.93001 3.1425 2.57992 6.06722C2.22983 8.99194 2.64728 12.3616 3.51232 13.5936Z"/>
</mask>
<path fill-rule="evenodd" clip-rule="evenodd" d="M3.22529 14.7887C4.24345 16.2387 5.40895 14.5728 5.8285 11.0678C6.24806 7.56273 5.76279 3.54583 4.74463 2.09578C3.72647 0.645721 2.56097 2.31161 2.14142 5.81665C1.72186 9.32169 2.20713 13.3386 3.22529 14.7887ZM3.51232 13.5936C4.37736 14.8256 5.36242 13.4534 5.71251 10.5286C6.0626 7.60391 5.64515 4.23424 4.78011 3.00225C3.91507 1.77026 2.93001 3.1425 2.57992 6.06722C2.22983 8.99194 2.64728 12.3616 3.51232 13.5936Z" fill="white"/>
<path fill-rule="evenodd" clip-rule="evenodd" d="M3.22529 14.7887C4.24345 16.2387 5.40895 14.5728 5.8285 11.0678C6.24806 7.56273 5.76279 3.54583 4.74463 2.09578C3.72647 0.645721 2.56097 2.31161 2.14142 5.81665C1.72186 9.32169 2.20713 13.3386 3.22529 14.7887ZM3.51232 13.5936C4.37736 14.8256 5.36242 13.4534 5.71251 10.5286C6.0626 7.60391 5.64515 4.23424 4.78011 3.00225C3.91507 1.77026 2.93001 3.1425 2.57992 6.06722C2.22983 8.99194 2.64728 12.3616 3.51232 13.5936Z" fill="white"/>
<path d="M5.8285 11.0678L6.05313 11.0947L5.8285 11.0678ZM3.22529 14.7887L3.04014 14.9187L3.04014 14.9187L3.22529 14.7887ZM4.74463 2.09578L4.55948 2.22578L4.55948 2.22578L4.74463 2.09578ZM2.14142 5.81665L2.36604 5.84354L2.14142 5.81665ZM5.71251 10.5286L5.48789 10.5017L5.71251 10.5286ZM3.51232 13.5936L3.32717 13.7236L3.51232 13.5936ZM4.78011 3.00225L4.96526 2.87225L4.96526 2.87225L4.78011 3.00225ZM2.57992 6.06722L2.35529 6.04033L2.57992 6.06722ZM5.60388 11.0409C5.39516 12.7846 5.00392 14.0308 4.56601 14.6567C4.34549 14.9719 4.14807 15.0816 3.99644 15.0858C3.84975 15.0897 3.64762 14.9964 3.41044 14.6586L3.04014 14.9187C3.31204 15.3059 3.63741 15.5481 4.00872 15.538C4.37509 15.5281 4.68617 15.2742 4.93674 14.9161C5.44101 14.1953 5.8423 12.856 6.05313 11.0947L5.60388 11.0409ZM4.55948 2.22578C5.0343 2.90201 5.40564 4.22021 5.60111 5.83829C5.79517 7.44461 5.81143 9.30695 5.60388 11.0409L6.05313 11.0947C6.26513 9.32356 6.24854 7.42492 6.05031 5.78402C5.8535 4.15488 5.47312 2.7396 4.92978 1.96578L4.55948 2.22578ZM2.36604 5.84354C2.57476 4.09985 2.96601 2.85366 3.40391 2.22774C3.62443 1.91255 3.82185 1.80279 3.97348 1.79867C4.12017 1.79469 4.3223 1.88798 4.55948 2.22578L4.92978 1.96578C4.65788 1.57855 4.33251 1.3363 3.9612 1.34638C3.59483 1.35632 3.28376 1.61021 3.03318 1.96837C2.52891 2.68914 2.12763 4.02842 1.91679 5.78977L2.36604 5.84354ZM3.41044 14.6586C2.93562 13.9824 2.56428 12.6642 2.36881 11.0461C2.17475 9.43981 2.15849 7.57748 2.36604 5.84354L1.91679 5.78977C1.70479 7.56087 1.72138 9.4595 1.91961 11.1004C2.11643 12.7295 2.4968 14.1448 3.04014 14.9187L3.41044 14.6586ZM5.48789 10.5017C5.31389 11.9553 4.98522 12.9816 4.62174 13.488C4.43914 13.7423 4.28259 13.8189 4.17068 13.8195C4.06082 13.8201 3.89674 13.7474 3.69747 13.4636L3.32717 13.7236C3.56043 14.0558 3.84386 14.2736 4.17294 14.272C4.49996 14.2703 4.77375 14.0521 4.9893 13.7518C5.42214 13.1488 5.76104 12.0267 5.93714 10.5555L5.48789 10.5017ZM4.59496 3.13225C4.9936 3.69999 5.30949 4.80255 5.47747 6.15848C5.64405 7.5031 5.66067 9.05831 5.48789 10.5017L5.93714 10.5555C6.11445 9.07424 6.09739 7.48226 5.9265 6.10285C5.75701 4.73477 5.43166 3.5365 4.96526 2.87225L4.59496 3.13225ZM2.80454 6.0941C2.97854 4.64053 3.30721 3.61423 3.67069 3.1079C3.85329 2.85352 4.00984 2.7769 4.12175 2.77634C4.23161 2.7758 4.39569 2.84846 4.59496 3.13225L4.96526 2.87225C4.732 2.54005 4.44857 2.32225 4.11949 2.32389C3.79247 2.32553 3.51868 2.54377 3.30313 2.84404C2.87029 3.44701 2.53139 4.56918 2.35529 6.04033L2.80454 6.0941ZM3.69747 13.4636C3.29883 12.8959 2.98294 11.7933 2.81496 10.4374C2.64838 9.09276 2.63176 7.53754 2.80454 6.0941L2.35529 6.04033C2.17798 7.52161 2.19504 9.1136 2.36593 10.493C2.53541 11.8611 2.86077 13.0594 3.32717 13.7236L3.69747 13.4636Z" fill="white" mask="url(#path-1-outside-1_1521_54971)"/>
<mask id="path-3-outside-2_1521_54971" maskUnits="userSpaceOnUse" x="1.87793" y="-0.517578" width="16" height="9" fill="black">
<rect fill="white" x="1.87793" y="-0.517578" width="16" height="9"/>
<path fill-rule="evenodd" clip-rule="evenodd" d="M11.2893 7.45065C15.114 7.5735 17.6084 6.11482 16.8607 4.19259C16.113 2.27036 12.4063 0.612497 8.58168 0.489646C4.75702 0.366794 2.26265 1.82548 3.01035 3.7477C3.01159 3.7509 3.01284 3.7541 3.0141 3.75729C3.40535 3.01744 3.83748 2.52912 4.24763 2.37856C4.98227 1.62849 6.53706 1.17014 8.52699 1.23406C11.7184 1.33657 14.8205 2.7436 15.4558 4.37675C16.0911 6.0099 14.0189 7.25072 10.8275 7.14821C8.94305 7.08768 7.08977 6.57234 5.75707 5.82419C5.75456 5.93403 5.75055 6.04531 5.74501 6.15786C7.28085 6.89235 9.26862 7.38574 11.2893 7.45065Z"/>
</mask>
<path fill-rule="evenodd" clip-rule="evenodd" d="M11.2893 7.45065C15.114 7.5735 17.6084 6.11482 16.8607 4.19259C16.113 2.27036 12.4063 0.612497 8.58168 0.489646C4.75702 0.366794 2.26265 1.82548 3.01035 3.7477C3.01159 3.7509 3.01284 3.7541 3.0141 3.75729C3.40535 3.01744 3.83748 2.52912 4.24763 2.37856C4.98227 1.62849 6.53706 1.17014 8.52699 1.23406C11.7184 1.33657 14.8205 2.7436 15.4558 4.37675C16.0911 6.0099 14.0189 7.25072 10.8275 7.14821C8.94305 7.08768 7.08977 6.57234 5.75707 5.82419C5.75456 5.93403 5.75055 6.04531 5.74501 6.15786C7.28085 6.89235 9.26862 7.38574 11.2893 7.45065Z" fill="white"/>
<path fill-rule="evenodd" clip-rule="evenodd" d="M11.2893 7.45065C15.114 7.5735 17.6084 6.11482 16.8607 4.19259C16.113 2.27036 12.4063 0.612497 8.58168 0.489646C4.75702 0.366794 2.26265 1.82548 3.01035 3.7477C3.01159 3.7509 3.01284 3.7541 3.0141 3.75729C3.40535 3.01744 3.83748 2.52912 4.24763 2.37856C4.98227 1.62849 6.53706 1.17014 8.52699 1.23406C11.7184 1.33657 14.8205 2.7436 15.4558 4.37675C16.0911 6.0099 14.0189 7.25072 10.8275 7.14821C8.94305 7.08768 7.08977 6.57234 5.75707 5.82419C5.75456 5.93403 5.75055 6.04531 5.74501 6.15786C7.28085 6.89235 9.26862 7.38574 11.2893 7.45065Z" fill="white"/>
<path d="M16.8607 4.19259L16.6498 4.2746L16.8607 4.19259ZM11.2893 7.45065L11.2966 7.22453L11.2893 7.45065ZM8.58168 0.489646L8.57442 0.715759L8.58168 0.489646ZM3.01035 3.7477L2.79951 3.82972L2.79951 3.82972L3.01035 3.7477ZM3.0141 3.75729L2.80364 3.84027L2.9841 4.29796L3.21409 3.86305L3.0141 3.75729ZM4.24763 2.37856L4.32559 2.59094L4.37352 2.57334L4.40925 2.53686L4.24763 2.37856ZM8.52699 1.23406L8.51973 1.46017L8.52699 1.23406ZM15.4558 4.37675L15.245 4.45876L15.4558 4.37675ZM10.8275 7.14821L10.8202 7.37433L10.8275 7.14821ZM5.75707 5.82419L5.86782 5.62692L5.5395 5.44261L5.5309 5.81902L5.75707 5.82419ZM5.74501 6.15786L5.51905 6.14674L5.51165 6.29703L5.6474 6.36195L5.74501 6.15786ZM16.6498 4.2746C16.8161 4.70199 16.7989 5.08924 16.6383 5.43446C16.475 5.78561 16.1533 6.11381 15.6754 6.39323C14.7173 6.95353 13.185 7.28519 11.2966 7.22453L11.2821 7.67676C13.2184 7.73896 14.8455 7.4027 15.9038 6.78381C16.4342 6.47364 16.835 6.08443 17.0485 5.62529C17.2649 5.16022 17.2791 4.6443 17.0715 4.11058L16.6498 4.2746ZM8.57442 0.715759C10.4586 0.776282 12.3124 1.21527 13.7827 1.87287C15.2654 2.53604 16.3092 3.39888 16.6498 4.2746L17.0715 4.11058C16.6644 3.06407 15.4811 2.13687 13.9674 1.45984C12.4412 0.777232 10.5294 0.325862 8.58894 0.263533L8.57442 0.715759ZM3.22119 3.66569C3.05495 3.2383 3.07213 2.85105 3.23271 2.50583C3.39606 2.15468 3.71776 1.82648 4.19558 1.54706C5.1537 0.986762 6.68604 0.655103 8.57442 0.715759L8.58894 0.263533C6.65266 0.201338 5.02549 0.537594 3.96718 1.15648C3.43679 1.46665 3.03605 1.85586 2.82247 2.315C2.60613 2.78008 2.5919 3.29599 2.79951 3.82972L3.22119 3.66569ZM3.22457 3.67431C3.22343 3.67144 3.22231 3.66857 3.22119 3.66569L2.79951 3.82972C2.80088 3.83323 2.80225 3.83675 2.80364 3.84027L3.22457 3.67431ZM3.21409 3.86305C3.40379 3.50433 3.59978 3.21367 3.79259 2.99755C3.98697 2.77966 4.16811 2.64874 4.32559 2.59094L4.16967 2.16619C3.91699 2.25894 3.67699 2.44746 3.45496 2.69634C3.23136 2.94698 3.01566 3.27041 2.81412 3.65153L3.21409 3.86305ZM4.40925 2.53686C4.7391 2.20008 5.27028 1.91324 5.97651 1.71921C6.68003 1.52593 7.54303 1.4288 8.51973 1.46017L8.53426 1.00794C7.52103 0.975398 6.61167 1.07548 5.85664 1.28292C5.10434 1.4896 4.4908 1.80697 4.08601 2.22027L4.40925 2.53686ZM8.51973 1.46017C10.0868 1.51051 11.6308 1.88148 12.8565 2.43744C14.0941 2.99876 14.9601 3.72643 15.245 4.45876L15.6666 4.29474C15.3162 3.39392 14.3136 2.60149 13.0434 2.02539C11.7614 1.44391 10.1586 1.06012 8.53426 1.00794L8.51973 1.46017ZM15.245 4.45876C15.3836 4.8151 15.3711 5.13565 15.2431 5.42044C15.1126 5.71068 14.8524 5.98451 14.4604 6.21926C13.6735 6.69044 12.406 6.97257 10.8347 6.9221L10.8202 7.37433C12.4404 7.42637 13.8046 7.13934 14.6929 6.60745C15.1384 6.34066 15.4766 6.00447 15.6558 5.60594C15.8373 5.20195 15.8457 4.75497 15.6666 4.29474L15.245 4.45876ZM10.8347 6.9221C8.98275 6.86261 7.16563 6.35549 5.86782 5.62692L5.64633 6.02146C7.01391 6.7892 8.90334 7.31275 10.8202 7.37433L10.8347 6.9221ZM5.5309 5.81902C5.52844 5.92684 5.52449 6.03613 5.51905 6.14674L5.97096 6.16898C5.9766 6.05448 5.98069 5.94122 5.98324 5.82936L5.5309 5.81902ZM11.2966 7.22453C9.30524 7.16057 7.34847 6.67392 5.84261 5.95377L5.6474 6.36195C7.21322 7.11077 9.232 7.61091 11.2821 7.67676L11.2966 7.22453Z" fill="white" mask="url(#path-3-outside-2_1521_54971)"/>
</svg>
