<svg width="27" height="18" viewBox="0 0 27 18" fill="none" xmlns="http://www.w3.org/2000/svg">
<path d="M16.0282 9.11095C16.0282 13.5134 12.5003 17.0823 8.14838 17.0823C3.79647 17.0823 0.268555 13.5134 0.268555 9.11095C0.268555 4.70852 3.79647 1.13965 8.14838 1.13965C12.5003 1.13965 16.0282 4.70852 16.0282 9.11095Z" fill="#ED0006"/>
<path d="M26.2499 9.11095C26.2499 13.5134 22.722 17.0823 18.3701 17.0823C14.0182 17.0823 10.4902 13.5134 10.4902 9.11095C10.4902 4.70852 14.0182 1.13965 18.3701 1.13965C22.722 1.13965 26.2499 4.70852 26.2499 9.11095Z" fill="#0099DF"/>
<path fill-rule="evenodd" clip-rule="evenodd" d="M13.2587 15.1778C14.9529 13.7157 16.0271 11.5402 16.0271 9.11088C16.0271 6.68155 14.9529 4.50603 13.2587 3.04395C11.5645 4.50603 10.4902 6.68155 10.4902 9.11088C10.4902 11.5402 11.5645 13.7157 13.2587 15.1778Z" fill="#6C6BBD"/>
</svg>
