<svg width="61" height="16" viewBox="0 0 61 16" fill="none" xmlns="http://www.w3.org/2000/svg">
<path d="M23.0728 3.95703H19.7569C19.53 3.95703 19.337 4.12188 19.3016 4.34588L17.9605 12.8487C17.9338 13.0164 18.0638 13.1677 18.234 13.1677H19.817C20.0439 13.1677 20.2369 13.0028 20.2723 12.7784L20.634 10.485C20.6689 10.2605 20.8623 10.0957 21.0888 10.0957H22.1385C24.3227 10.0957 25.5833 9.03873 25.9125 6.94418C26.0609 6.02782 25.9188 5.30782 25.4897 4.80358C25.0185 4.24988 24.1826 3.95703 23.0728 3.95703ZM23.4553 7.06249C23.274 8.2523 22.3649 8.2523 21.4858 8.2523H20.9855L21.3365 6.03024C21.3574 5.89594 21.4737 5.79703 21.6095 5.79703H21.8388C22.4376 5.79703 23.0025 5.79703 23.2943 6.13836C23.4684 6.342 23.5217 6.64455 23.4553 7.06249Z" fill="#253B80"/>
<path d="M32.9839 7.02433H31.396C31.2608 7.02433 31.1439 7.12324 31.1231 7.25755L31.0528 7.70167L30.9417 7.5407C30.598 7.04179 29.8314 6.875 29.0663 6.875C27.3117 6.875 25.813 8.20397 25.5211 10.0682C25.3694 10.9982 25.5851 11.8874 26.1126 12.5075C26.5965 13.0777 27.2889 13.3152 28.1126 13.3152C29.5265 13.3152 30.3105 12.4062 30.3105 12.4062L30.2397 12.8474C30.213 13.0161 30.3429 13.1674 30.5122 13.1674H31.9425C32.1699 13.1674 32.3619 13.0025 32.3977 12.778L33.2559 7.34336C33.2831 7.17609 33.1536 7.02433 32.9839 7.02433ZM30.7706 10.1148C30.6174 11.0219 29.8974 11.6309 28.9791 11.6309C28.518 11.6309 28.1495 11.483 27.9129 11.2028C27.6782 10.9245 27.589 10.5283 27.6637 10.0871C27.8067 9.18773 28.5388 8.55888 29.4431 8.55888C29.894 8.55888 30.2605 8.7087 30.502 8.99136C30.7439 9.27694 30.8399 9.67548 30.7706 10.1148Z" fill="#253B80"/>
<path d="M41.4411 7.02441H39.8455C39.6932 7.02441 39.5502 7.10005 39.4639 7.2266L37.2631 10.4683L36.3303 7.35314C36.2716 7.15823 36.0918 7.02441 35.8881 7.02441H34.3201C34.1296 7.02441 33.9972 7.2106 34.0578 7.38999L35.8154 12.5478L34.163 14.8804C34.0331 15.0642 34.164 15.3168 34.3885 15.3168H35.9822C36.1335 15.3168 36.275 15.2431 36.3608 15.119L41.668 7.45835C41.795 7.27508 41.6646 7.02441 41.4411 7.02441Z" fill="#253B80"/>
<path d="M46.7241 3.95703H43.4078C43.1813 3.95703 42.9884 4.12188 42.953 4.34588L41.6119 12.8487C41.5852 13.0164 41.7152 13.1677 41.8844 13.1677H43.5862C43.7442 13.1677 43.8795 13.0523 43.9042 12.8952L44.2848 10.485C44.3198 10.2605 44.5132 10.0957 44.7396 10.0957H45.7889C47.9736 10.0957 49.2337 9.03873 49.5634 6.94418C49.7122 6.02782 49.5692 5.30782 49.1401 4.80358C48.6693 4.24988 47.8339 3.95703 46.7241 3.95703ZM47.1067 7.06249C46.9258 8.2523 46.0167 8.2523 45.1372 8.2523H44.6373L44.9889 6.03024C45.0097 5.89594 45.1251 5.79703 45.2613 5.79703H45.4907C46.089 5.79703 46.6543 5.79703 46.9462 6.13836C47.1202 6.342 47.1731 6.64455 47.1067 7.06249Z" fill="#179BD7"/>
<path d="M56.6352 7.02433H55.0483C54.912 7.02433 54.7961 7.12324 54.7758 7.25755L54.7055 7.70167L54.594 7.5407C54.2502 7.04179 53.4841 6.875 52.719 6.875C50.9644 6.875 49.4662 8.20397 49.1743 10.0682C49.023 10.9982 49.2378 11.8874 49.7654 12.5075C50.2502 13.0777 50.9416 13.3152 51.7653 13.3152C53.1792 13.3152 53.9632 12.4062 53.9632 12.4062L53.8924 12.8474C53.8657 13.0161 53.9957 13.1674 54.1658 13.1674H55.5957C55.8221 13.1674 56.015 13.0025 56.0504 12.778L56.9091 7.34336C56.9353 7.17609 56.8053 7.02433 56.6352 7.02433ZM54.4218 10.1148C54.2696 11.0219 53.5486 11.6309 52.6303 11.6309C52.1702 11.6309 51.8007 11.483 51.5641 11.2028C51.3295 10.9245 51.2412 10.5283 51.3149 10.0871C51.4589 9.18773 52.1901 8.55888 53.0943 8.55888C53.5452 8.55888 53.9118 8.7087 54.1532 8.99136C54.3961 9.27694 54.4921 9.67548 54.4218 10.1148Z" fill="#179BD7"/>
<path d="M58.507 4.18975L57.1461 12.8482C57.1194 13.0159 57.2493 13.1672 57.4185 13.1672H58.7868C59.0142 13.1672 59.2071 13.0024 59.2421 12.7779L60.5841 4.27557C60.6108 4.10781 60.4808 3.95605 60.3116 3.95605H58.7795C58.6442 3.95654 58.5279 4.05545 58.507 4.18975Z" fill="#179BD7"/>
<path d="M4.19013 14.8195L4.4437 13.2088L3.87885 13.1957H1.18164L3.05606 1.3106C3.06188 1.27472 3.08079 1.24127 3.10843 1.21751C3.13606 1.19375 3.17146 1.18066 3.20831 1.18066H7.75619C9.266 1.18066 10.3079 1.49485 10.8519 2.11497C11.107 2.40588 11.2694 2.70988 11.3479 3.04442C11.4304 3.39545 11.4318 3.81485 11.3513 4.32636L11.3455 4.36369V4.69145L11.6005 4.83594C11.8153 4.94988 11.986 5.0803 12.1169 5.22963C12.3351 5.47836 12.4762 5.79448 12.5358 6.16927C12.5974 6.55472 12.577 7.01339 12.4762 7.53266C12.3598 8.13 12.1717 8.65024 11.9176 9.07594C11.6839 9.46818 11.3862 9.79351 11.0328 10.0456C10.6953 10.2851 10.2944 10.467 9.84103 10.5833C9.40176 10.6978 8.90091 10.7555 8.35158 10.7555H7.99764C7.74455 10.7555 7.49873 10.8466 7.30576 11.01C7.11231 11.1768 6.98431 11.4047 6.94503 11.6539L6.91837 11.7988L6.47037 14.6376L6.45 14.7419C6.44467 14.7748 6.43546 14.7913 6.42188 14.8025C6.40976 14.8127 6.39231 14.8195 6.37534 14.8195H4.19013Z" fill="#253B80"/>
<path d="M11.8414 4.40234C11.8278 4.48913 11.8123 4.57786 11.7948 4.66901C11.1951 7.74828 9.14319 8.81204 6.52259 8.81204H5.18829C4.8678 8.81204 4.59774 9.04477 4.5478 9.36089L3.86465 13.6935L3.67119 14.9216C3.63871 15.1291 3.79871 15.3163 4.00816 15.3163H6.37471C6.65495 15.3163 6.89301 15.1126 6.93713 14.8363L6.96041 14.716L7.40598 11.8884L7.43459 11.7333C7.47822 11.4559 7.71677 11.2523 7.99701 11.2523H8.35095C10.6438 11.2523 12.4387 10.3214 12.9633 7.62756C13.1825 6.50222 13.069 5.56259 12.4891 4.90174C12.3136 4.70246 12.0959 4.53713 11.8414 4.40234Z" fill="#179BD7"/>
<path d="M11.214 4.1518C11.1224 4.12513 11.0279 4.10089 10.9309 4.07907C10.8334 4.05774 10.7335 4.03883 10.6308 4.02234C10.271 3.96416 9.87682 3.93652 9.45452 3.93652H5.88991C5.80215 3.93652 5.71876 3.9564 5.64409 3.99228C5.47973 4.07131 5.35755 4.22695 5.32797 4.41749L4.56967 9.2204L4.54785 9.36052C4.59779 9.0444 4.86785 8.81167 5.18834 8.81167H6.52264C9.14325 8.81167 11.1951 7.74743 11.7949 4.66864C11.8128 4.57749 11.8279 4.48877 11.8414 4.40198C11.6897 4.32149 11.5253 4.25264 11.3483 4.19398C11.3047 4.17943 11.2596 4.16537 11.214 4.1518Z" fill="#222D65"/>
<path d="M5.32832 4.41742C5.3579 4.22687 5.48008 4.07124 5.64444 3.99269C5.71959 3.95681 5.8025 3.93693 5.89026 3.93693H9.45486C9.87717 3.93693 10.2713 3.96457 10.6311 4.02275C10.7339 4.03924 10.8338 4.05815 10.9312 4.07948C11.0282 4.1013 11.1227 4.12554 11.2144 4.15221C11.26 4.16578 11.305 4.17984 11.3492 4.1939C11.5261 4.25257 11.6905 4.3219 11.8423 4.4019C12.0207 3.26396 11.8408 2.48918 11.2255 1.7876C10.5472 1.01524 9.32299 0.68457 7.75644 0.68457H3.20856C2.88856 0.68457 2.61559 0.917298 2.56614 1.2339L0.671835 13.2412C0.634502 13.4788 0.817775 13.6931 1.05729 13.6931H3.86505L4.57002 9.22033L5.32832 4.41742Z" fill="#253B80"/>
</svg>
