<svg width="29" height="20" viewBox="0 0 29 20" fill="none" xmlns="http://www.w3.org/2000/svg">
<rect x="0.3125" y="0.3125" width="28.125" height="19.375" rx="3.4375" fill="white"/>
<rect x="0.3125" y="0.3125" width="28.125" height="19.375" rx="3.4375" stroke="#F2F4F7" stroke-width="0.625"/>
<path fill-rule="evenodd" clip-rule="evenodd" d="M8.95854 13.2153H7.24209L5.95496 8.16044C5.89387 7.92791 5.76415 7.72235 5.57334 7.62546C5.09716 7.38199 4.57243 7.18822 4 7.09049V6.89587H6.76507C7.14669 6.89587 7.4329 7.18822 7.4806 7.52774L8.14844 11.174L9.86405 6.89587H11.5328L8.95854 13.2153ZM12.4869 13.2153H10.8658L12.2007 6.89587H13.8217L12.4869 13.2153ZM15.919 8.64643C15.9667 8.30607 16.2529 8.11145 16.5868 8.11145C17.1115 8.06259 17.6831 8.16032 18.1601 8.40295L18.4464 7.04234C17.9693 6.84773 17.4446 6.75 16.9684 6.75C15.3951 6.75 14.2502 7.62534 14.2502 8.8402C14.2502 9.7644 15.0612 10.2497 15.6336 10.542C16.2529 10.8335 16.4914 11.0281 16.4437 11.3196C16.4437 11.7569 15.9667 11.9515 15.4905 11.9515C14.9181 11.9515 14.3456 11.8057 13.8217 11.5623L13.5355 12.9237C14.108 13.1663 14.7272 13.2641 15.2997 13.2641C17.0638 13.3121 18.1601 12.4376 18.1601 11.125C18.1601 9.47206 15.919 9.37518 15.919 8.64643ZM23.8335 13.2153L22.5464 6.89587H21.1638C20.8776 6.89587 20.5914 7.09049 20.496 7.38199L18.1125 13.2153H19.7813L20.1144 12.292H22.1647L22.3556 13.2153H23.8335ZM21.4022 8.59753L21.8784 10.9792H20.5436L21.4022 8.59753Z" fill="#172B85"/>
</svg>
