<svg width="30" height="20" viewBox="0 0 30 20" fill="none" xmlns="http://www.w3.org/2000/svg">
<rect x="0.9375" y="0.3125" width="28.125" height="19.375" rx="3.4375" fill="white"/>
<rect x="0.9375" y="0.3125" width="28.125" height="19.375" rx="3.4375" stroke="#F2F4F7" stroke-width="0.625"/>
<path d="M15 10.625C15.3452 10.625 15.625 10.3452 15.625 10C15.625 9.65482 15.3452 9.375 15 9.375C14.6548 9.375 14.375 9.65482 14.375 10C14.375 10.3452 14.6548 10.625 15 10.625Z" stroke="#101828" stroke-width="1.25" stroke-linecap="round" stroke-linejoin="round"/>
<path d="M19.375 10.625C19.7202 10.625 20 10.3452 20 10C20 9.65482 19.7202 9.375 19.375 9.375C19.0298 9.375 18.75 9.65482 18.75 10C18.75 10.3452 19.0298 10.625 19.375 10.625Z" stroke="#101828" stroke-width="1.25" stroke-linecap="round" stroke-linejoin="round"/>
<path d="M10.625 10.625C10.9702 10.625 11.25 10.3452 11.25 10C11.25 9.65482 10.9702 9.375 10.625 9.375C10.2798 9.375 10 9.65482 10 10C10 10.3452 10.2798 10.625 10.625 10.625Z" stroke="#101828" stroke-width="1.25" stroke-linecap="round" stroke-linejoin="round"/>
</svg>
